<?xml version="1.0" encoding="UTF-8" standalone="no"?>
<!DOCTYPE svg PUBLIC "-//W3C//DTD SVG 1.1//EN" "http://www.w3.org/Graphics/SVG/1.1/DTD/svg11.dtd">
<svg version="1.1" xmlns="http://www.w3.org/2000/svg" xmlns:xlink="http://www.w3.org/1999/xlink" preserveAspectRatio="xMidYMid meet" viewBox="0 0 110 90" width="110" height="90"><defs><path d="M1059.64 -150.54C1053.41 -150.32 401.87 -133.72 324.64 -133.16C205.22 -132.29 50.15 -140.53 -9.4 -155.95C-37.7 -163.28 -37.68 -172.24 -9.33 -182.82C-9.11 -182.9 -8.89 -182.94 -8.66 -182.94C192.55 -180.02 695.57 -172.72 1500.4 -161.04L1515.55 -118.32C1409.55 -147 1257.58 -157.74 1059.64 -150.54Z" id="a2ldC9N8EW"></path><path d="M100.83 6.32C101.24 7.21 104.52 14.29 104.93 15.18C95.7 18.66 87.59 30.77 86.68 39.12C97.06 40.75 105 49.73 105 60.58C105 73.83 94.23 81.32 83.34 81.32C70.77 81.32 59.17 71.72 59.17 55.18C59.17 33.75 75.38 11.35 100.83 6.32ZM46.67 6.32C47.08 7.21 50.36 14.29 50.77 15.18C41.54 18.66 33.42 30.77 32.52 39.12C42.9 40.75 50.83 49.73 50.83 60.58C50.83 73.83 40.07 81.32 29.17 81.32C16.61 81.32 5 71.72 5 55.18C5 33.75 21.22 11.35 46.67 6.32Z" id="a55dqJbTuc"></path></defs><g><g><g><use xlink:href="#a2ldC9N8EW" opacity="1" fill="#ff4e53" fill-opacity="0.39"></use></g><g><use xlink:href="#a55dqJbTuc" opacity="1" fill="#ff4e53" fill-opacity="1"></use><g><use xlink:href="#a55dqJbTuc" opacity="1" fill-opacity="0" stroke="#000000" stroke-width="1" stroke-opacity="0"></use></g></g></g></g></svg>