<?xml version="1.0" encoding="UTF-8" standalone="no"?>
<!DOCTYPE svg PUBLIC "-//W3C//DTD SVG 1.1//EN" "http://www.w3.org/Graphics/SVG/1.1/DTD/svg11.dtd">
<svg version="1.1" xmlns="http://www.w3.org/2000/svg" xmlns:xlink="http://www.w3.org/1999/xlink" preserveAspectRatio="none" viewBox="0 0 300 50" width="100%" height="50"><defs><path d="M102.42 5.01C143.3 3.83 184.67 25.3 234.3 26.37C267.39 27.09 289.61 21.4 300.96 9.31C300.96 -4.23 300.96 -12.7 300.96 -16.08C300.96 -16.24 300.83 -16.36 300.68 -16.36C260.59 -16.36 160.36 -16.36 0 -16.36L0 32.91C29.78 15.42 63.93 6.13 102.42 5.01Z" id="b3p0g7jhof"></path><path d="M1059.64 -150.54C1053.41 -150.32 401.87 -133.72 324.64 -133.16C205.22 -132.29 50.15 -140.53 -9.4 -155.95C-37.7 -163.28 -37.68 -172.24 -9.33 -182.82C-9.11 -182.9 -8.89 -182.94 -8.66 -182.94C192.55 -180.02 695.57 -172.72 1500.4 -161.04L1515.55 -118.32C1409.55 -147 1257.58 -157.74 1059.64 -150.54Z" id="a2ldC9N8EW"></path><path d="M102.35 9.65C143.84 8.47 185.82 29.94 236.19 31.01C269.77 31.72 292.32 26.04 303.84 13.95C303.84 0.41 303.84 -8.06 303.84 -11.44C303.84 -11.6 303.71 -11.72 303.55 -11.72C262.87 -11.72 161.15 -11.72 -1.6 -11.72L-1.6 37.55C28.63 20.06 63.28 10.76 102.35 9.65Z" id="g8F4Y4nCMN"></path></defs><g><g><g><use xlink:href="#b3p0g7jhof" opacity="1" fill="#ff4e53" fill-opacity="1"></use></g><g><use xlink:href="#a2ldC9N8EW" opacity="1" fill="#ff4e53" fill-opacity="0.39"></use></g><g><use xlink:href="#g8F4Y4nCMN" opacity="1" fill="#ff4e53" fill-opacity="0.39"></use></g></g></g></svg>