<?xml version="1.0" encoding="UTF-8" standalone="no"?>
<!DOCTYPE svg PUBLIC "-//W3C//DTD SVG 1.1//EN" "http://www.w3.org/Graphics/SVG/1.1/DTD/svg11.dtd">
<svg version="1.1" xmlns="http://www.w3.org/2000/svg" xmlns:xlink="http://www.w3.org/1999/xlink" preserveAspectRatio="xMidYMid meet" viewBox="0 0 110 90" width="110" height="90"><defs><path d="M1059.64 -150.54C1053.41 -150.32 401.87 -133.72 324.64 -133.16C205.22 -132.29 50.15 -140.53 -9.4 -155.95C-37.7 -163.28 -37.68 -172.24 -9.33 -182.82C-9.11 -182.9 -8.89 -182.94 -8.66 -182.94C192.55 -180.02 695.57 -172.72 1500.4 -161.04L1515.55 -118.32C1409.55 -147 1257.58 -157.74 1059.64 -150.54Z" id="a2ldC9N8EW"></path><path d="M34.71 42.93C11.71 43.31 13.35 18.75 29.5 18.75C36.36 18.75 43.75 23.77 43.75 34.78C43.75 45 38.46 56.7 28.41 64.26C34.05 55.6 35.08 47.58 34.71 42.93ZM83.46 42.93C60.46 43.31 62.1 18.75 78.25 18.75C85.11 18.75 92.5 23.77 92.5 34.78C92.5 45 87.21 56.7 77.16 64.26C82.8 55.6 83.83 47.58 83.46 42.93ZM51.25 34.78C51.25 19.89 40.8 11.25 29.5 11.25C19.69 11.25 10 17.99 10 29.92C10 39.67 17.14 47.76 26.49 49.23C25.67 56.74 18.37 67.65 10.06 70.78C10.31 71.31 11.54 73.97 13.75 78.75C38.75 62.29 51.25 47.63 51.25 34.78ZM100 34.78C100 19.89 89.55 11.25 78.25 11.25C68.44 11.25 58.75 17.99 58.75 29.92C58.75 39.67 65.89 47.76 75.23 49.23C74.42 56.74 67.12 67.65 58.81 70.78C59.06 71.31 60.29 73.97 62.5 78.75C87.5 62.29 100 47.63 100 34.78Z" id="c2izcQBNl7"></path></defs><g><g><g><use xlink:href="#a2ldC9N8EW" opacity="1" fill="#ff4e53" fill-opacity="0.39"></use></g><g><use xlink:href="#c2izcQBNl7" opacity="1" fill="#ff4e53" fill-opacity="1"></use><g><use xlink:href="#c2izcQBNl7" opacity="1" fill-opacity="0" stroke="#000000" stroke-width="1" stroke-opacity="0"></use></g></g></g></g></svg>