<?xml version="1.0" encoding="UTF-8" standalone="no"?>
<!DOCTYPE svg PUBLIC "-//W3C//DTD SVG 1.1//EN" "http://www.w3.org/Graphics/SVG/1.1/DTD/svg11.dtd">
<svg version="1.1" xmlns="http://www.w3.org/2000/svg" xmlns:xlink="http://www.w3.org/1999/xlink" preserveAspectRatio="none" viewBox="0 0 110 90"><defs><path d="M1059.64 -150.54C1053.41 -150.32 401.87 -133.72 324.64 -133.16C205.22 -132.29 50.15 -140.53 -9.4 -155.95C-37.7 -163.28 -37.68 -172.24 -9.33 -182.82C-9.11 -182.9 -8.89 -182.94 -8.66 -182.94C192.55 -180.02 695.57 -172.72 1500.4 -161.04L1515.55 -118.32C1409.55 -147 1257.58 -157.74 1059.64 -150.54Z" id="cVnonhxhg"></path><path d="M324.64 -133.16C205.22 -132.29 50.15 -140.53 -9.4 -155.95C-37.7 -163.28 -37.68 -172.24 -9.33 -182.82C-9.11 -182.9 -8.89 -182.94 -8.66 -182.94C192.55 -180.02 695.57 -172.72 1500.4 -161.04C1501.92 -156.77 1514.04 -122.59 1515.55 -118.32C1409.55 -147 1257.58 -157.74 1059.64 -150.54C1053.41 -150.32 401.87 -133.72 324.64 -133.16Z" id="a9MfwfMER"></path><path d="M55.92 64.09C75.07 42.36 93.18 21.08 110.26 0.22C88.21 0.22 11.03 0.22 0 0.22C17.96 21.13 36.61 42.42 55.92 64.09Z" id="hDaWj96l"></path><path d="M55.92 64.09C75.07 42.36 93.18 21.08 110.26 0.22C88.21 0.22 11.03 0.22 0 0.22C17.96 21.13 36.61 42.42 55.92 64.09Z" id="d5Q6OmKBZ"></path><path d="M55.92 54.76C73.02 36.79 88.77 19.65 103.17 3.33C90.77 3.33 59.8 3.33 10.24 3.33C19.38 13.62 51.35 49.62 55.92 54.76Z" id="c1SnSs6tFQ"></path><path d="M55.92 54.76C73.02 36.79 88.77 19.65 103.17 3.33C90.77 3.33 59.8 3.33 10.24 3.33C19.38 13.62 51.35 49.62 55.92 54.76Z" id="d8Ve6kdyE"></path><path d="M55.92 44.82C75.07 21.67 93.18 0.17 110.26 -19.66C88.21 -19.66 11.03 -19.66 0 -19.66C17.96 0.23 36.61 21.73 55.92 44.82Z" id="bDeAUZ8nk"></path><path d="M55.92 44.82C75.07 21.67 93.18 0.17 110.26 -19.66C88.21 -19.66 11.03 -19.66 0 -19.66C17.96 0.23 36.61 21.73 55.92 44.82Z" id="c7zjedMSOv"></path><path d="M14.81 8.67C28.17 21.88 41.86 34.89 55.92 47.69C70.64 34.84 84.34 21.84 97.02 8.67C82.22 8.67 34.13 8.67 18.67 8.67C16.95 8.67 15.64 8.67 14.81 8.67Z" id="gHURneXAr"></path><path d="M14.81 8.67C28.17 21.88 41.86 34.89 55.92 47.69C70.64 34.84 84.34 21.84 97.02 8.67C82.22 8.67 34.13 8.67 18.67 8.67C16.95 8.67 15.64 8.67 14.81 8.67Z" id="bYeYOzL4S"></path><path d="M55.92 36.09C75.47 15.38 93.84 -4.1 111.04 -22.35C89 -22.56 11.82 -23.3 0.79 -23.41C18.48 -4.77 36.87 15.06 55.92 36.09Z" id="a1xP5hjpUX"></path><path d="M55.92 36.09C75.47 15.38 93.84 -4.1 111.04 -22.35C89 -22.56 11.82 -23.3 0.79 -23.41C18.48 -4.77 36.87 15.06 55.92 36.09Z" id="j2el2LU3ib"></path></defs><g><g><g><use xlink:href="#cVnonhxhg" opacity="1" fill="#ff4e53" fill-opacity="0.39"></use></g><g><use xlink:href="#a9MfwfMER" opacity="1" fill="#ff4e53" fill-opacity="0.39"></use><g><use xlink:href="#a9MfwfMER" opacity="1" fill-opacity="0" stroke="#000000" stroke-width="1" stroke-opacity="0"></use></g></g><g><use xlink:href="#hDaWj96l" opacity="1" fill="#ff4e53" fill-opacity="0.39"></use><g><use xlink:href="#hDaWj96l" opacity="1" fill-opacity="0" stroke="#000000" stroke-width="1" stroke-opacity="0"></use></g></g><g><use xlink:href="#d5Q6OmKBZ" opacity="1" fill="#000000" fill-opacity="0"></use><g><use xlink:href="#d5Q6OmKBZ" opacity="1" fill-opacity="0" stroke="#000000" stroke-width="1" stroke-opacity="0"></use></g></g><g><use xlink:href="#c1SnSs6tFQ" opacity="1" fill="#ff4e53" fill-opacity="1"></use><g><use xlink:href="#c1SnSs6tFQ" opacity="1" fill-opacity="0" stroke="#000000" stroke-width="1" stroke-opacity="0"></use></g></g><g><use xlink:href="#d8Ve6kdyE" opacity="1" fill="#000000" fill-opacity="0"></use><g><use xlink:href="#d8Ve6kdyE" opacity="1" fill-opacity="0" stroke="#000000" stroke-width="1" stroke-opacity="0"></use></g></g><g><use xlink:href="#bDeAUZ8nk" opacity="1" fill="#ffffff" fill-opacity="1"></use><g><use xlink:href="#bDeAUZ8nk" opacity="1" fill-opacity="0" stroke="#000000" stroke-width="1" stroke-opacity="0"></use></g></g><g><use xlink:href="#c7zjedMSOv" opacity="1" fill="#000000" fill-opacity="0"></use><g><use xlink:href="#c7zjedMSOv" opacity="1" fill-opacity="0" stroke="#000000" stroke-width="1" stroke-opacity="0"></use></g></g><g><use xlink:href="#gHURneXAr" opacity="1" fill="#ff4e53" fill-opacity="0.39"></use><g><use xlink:href="#gHURneXAr" opacity="1" fill-opacity="0" stroke="#000000" stroke-width="1" stroke-opacity="0"></use></g></g><g><use xlink:href="#bYeYOzL4S" opacity="1" fill="#000000" fill-opacity="0"></use><g><use xlink:href="#bYeYOzL4S" opacity="1" fill-opacity="0" stroke="#000000" stroke-width="1" stroke-opacity="0"></use></g></g><g><use xlink:href="#a1xP5hjpUX" opacity="1" fill="#ffffff" fill-opacity="1"></use><g><use xlink:href="#a1xP5hjpUX" opacity="1" fill-opacity="0" stroke="#000000" stroke-width="1" stroke-opacity="0"></use></g></g><g><use xlink:href="#j2el2LU3ib" opacity="1" fill="#000000" fill-opacity="0"></use><g><use xlink:href="#j2el2LU3ib" opacity="1" fill-opacity="0" stroke="#000000" stroke-width="1" stroke-opacity="0"></use></g></g></g></g></svg>