<?xml version="1.0" encoding="UTF-8" standalone="no"?>
<!DOCTYPE svg PUBLIC "-//W3C//DTD SVG 1.1//EN" "http://www.w3.org/Graphics/SVG/1.1/DTD/svg11.dtd">
<svg version="1.1" xmlns="http://www.w3.org/2000/svg" xmlns:xlink="http://www.w3.org/1999/xlink" preserveAspectRatio="none" viewBox="0 0 150 100" ><defs><path d="M1059.64 -150.54C1053.41 -150.32 401.87 -133.72 324.64 -133.16C205.22 -132.29 50.15 -140.53 -9.4 -155.95C-37.7 -163.28 -37.68 -172.24 -9.33 -182.82C-9.11 -182.9 -8.89 -182.94 -8.66 -182.94C192.55 -180.02 695.57 -172.72 1500.4 -161.04L1515.55 -118.32C1409.55 -147 1257.58 -157.74 1059.64 -150.54Z" id="a2ldC9N8EW"></path><path d="M150 -0.08L0 -0.08C36.66 34.76 59.58 56.53 68.74 65.24C73.22 69.5 80.27 69.41 84.64 65.05C93.36 56.37 115.14 34.66 150 -0.08Z" id="b5DK1wYkV"></path><path d="M150 -12.21L0 -12.21C36.66 22.62 59.58 44.4 68.74 53.11C73.22 57.36 80.27 57.28 84.64 52.92C93.36 44.23 115.14 22.52 150 -12.21Z" id="c5QKNakiBc"></path><path d="M150 -27.12L0 -27.12C36.66 7.72 59.58 29.49 68.74 38.2C73.22 42.46 80.27 42.37 84.64 38.01C93.36 29.33 115.14 7.62 150 -27.12Z" id="a8sVUW6bB"></path><path d="M150 -13.16L0 -13.16C36.53 19.37 59.37 39.7 68.5 47.83C73.19 52.01 80.3 51.92 84.89 47.63C93.57 39.53 115.28 19.26 150 -13.16Z" id="h1tqk9dDVn"></path><path d="M150 -34.2L0 -34.2C36.52 -1.84 59.35 18.39 68.48 26.48C73.19 30.65 80.3 30.57 84.91 26.29C93.59 18.22 115.29 -1.94 150 -34.2Z" id="a24YKaOIks"></path></defs><g><g><g><use xlink:href="#a2ldC9N8EW" opacity="1" fill="#ff4e53" fill-opacity="0.39"></use></g><g><use xlink:href="#b5DK1wYkV" opacity="1" fill="#ff4e53" fill-opacity="0.39"></use></g><g><use xlink:href="#c5QKNakiBc" opacity="1" fill="#ff4e53" fill-opacity="1"></use></g><g><use xlink:href="#a8sVUW6bB" opacity="1" fill="#ffffff" fill-opacity="1"></use></g><g><use xlink:href="#h1tqk9dDVn" opacity="1" fill="#ff4e53" fill-opacity="0.39"></use></g><g><use xlink:href="#a24YKaOIks" opacity="1" fill="#ffffff" fill-opacity="1"></use></g></g></g></svg>