<?xml version="1.0" encoding="UTF-8" standalone="no"?>
<!DOCTYPE svg PUBLIC "-//W3C//DTD SVG 1.1//EN" "http://www.w3.org/Graphics/SVG/1.1/DTD/svg11.dtd">
<svg version="1.1" xmlns="http://www.w3.org/2000/svg" xmlns:xlink="http://www.w3.org/1999/xlink" preserveAspectRatio="none" viewBox="0 0 300 50" width="100%" height="50"><defs><path d="M197.9 44.93C157.15 46.11 115.92 24.64 66.44 23.57C33.46 22.85 11.31 28.54 0 40.63C0 54.17 0 62.64 0 66.02C0 66.18 0.12 66.3 0.28 66.3C40.24 66.3 140.15 66.3 300 66.3L300 17.03C270.31 34.52 236.28 43.81 197.9 44.93Z" id="a2U13V58fg"></path><path d="M1059.64 -150.54C1053.41 -150.32 401.87 -133.72 324.64 -133.16C205.22 -132.29 50.15 -140.53 -9.4 -155.95C-37.7 -163.28 -37.68 -172.24 -9.33 -182.82C-9.11 -182.9 -8.89 -182.94 -8.66 -182.94C192.55 -180.02 695.57 -172.72 1500.4 -161.04L1515.55 -118.32C1409.55 -147 1257.58 -157.74 1059.64 -150.54Z" id="e1dJuJrJN"></path><path d="M198.95 40.93C157.85 42.11 116.27 20.64 66.37 19.57C33.11 18.85 10.77 24.54 -0.64 36.63C-0.64 50.17 -0.64 58.64 -0.64 62.02C-0.64 62.18 -0.51 62.3 -0.36 62.3C39.94 62.3 140.7 62.3 301.92 62.3L301.92 13.03C271.97 30.52 237.65 39.82 198.95 40.93Z" id="a3GeOIG63a"></path></defs><g><g><g><use xlink:href="#a2U13V58fg" opacity="1" fill="#ff4e53" fill-opacity="1"></use></g><g><use xlink:href="#e1dJuJrJN" opacity="1" fill="#ff4e53" fill-opacity="0.39"></use></g><g><use xlink:href="#a3GeOIG63a" opacity="1" fill="#ff4e53" fill-opacity="0.39"></use></g></g></g></svg>